<?xml version="1.0" encoding="UTF-8"?>
<svg xmlns="http://www.w3.org/2000/svg" xmlns:xlink="http://www.w3.org/1999/xlink" width="192pt" height="192pt" viewBox="0 0 192 192" version="1.1">
<g id="surface341748">
<path style=" stroke:none;fill-rule:nonzero;fill:rgb(0%,0%,0%);fill-opacity:1;" d="M 82.796875 9 C 75.449219 9 68.851562 12.75 64.949219 18.898438 C 63.601562 21 64.203125 23.847656 66.449219 25.046875 C 68.550781 26.398438 71.402344 25.796875 72.601562 23.546875 C 74.851562 19.949219 78.597656 17.851562 82.796875 17.851562 L 109.203125 17.851562 C 115.800781 17.851562 121.203125 23.25 121.203125 29.851562 L 121.203125 34.351562 L 28.5 34.351562 C 17.699219 34.351562 9 43.050781 9 53.851562 L 9 83.398438 C 9 85.050781 9.898438 86.398438 11.25 87.296875 C 34.351562 101.097656 60 108.898438 85.800781 110.546875 L 85.800781 118.949219 C 85.800781 125.550781 91.199219 130.949219 97.800781 130.949219 C 104.398438 130.949219 109.800781 125.550781 109.800781 118.949219 L 109.800781 110.25 C 134.550781 108.148438 158.847656 100.5 180.898438 87.296875 C 182.25 86.550781 183.148438 85.050781 183.148438 83.398438 L 183.148438 54 C 183 43.199219 174.300781 34.5 163.5 34.5 L 130.203125 34.5 L 130.203125 30 C 130.203125 18.449219 120.75 9 109.203125 9 Z M 28.5 43.5 L 163.5 43.5 C 169.351562 43.5 174 48.148438 174 54 L 174 81 C 125.699219 108.898438 66.300781 108.898438 18 81 L 18 54 C 18 48.148438 22.648438 43.5 28.5 43.5 Z M 13.5 101.550781 C 10.949219 101.550781 9 103.5 9 106.050781 L 9 171 C 9 181.800781 17.699219 190.5 28.5 190.5 L 163.5 190.5 C 174.300781 190.5 183 181.800781 183 171 L 183 106.050781 C 183 103.5 181.050781 101.550781 178.5 101.550781 C 175.949219 101.550781 174 103.5 174 106.050781 L 174 171 C 174 176.851562 169.351562 181.5 163.5 181.5 L 28.5 181.5 C 22.648438 181.5 18 176.851562 18 171 L 18 106.050781 C 18 103.5 16.050781 101.550781 13.5 101.550781 Z M 13.5 101.550781 "/>
<path style=" stroke:none;fill-rule:nonzero;fill:rgb(27.843139%,27.450982%,27.450982%);fill-opacity:1;" d="M 58.710938 72.222656 L 51.019531 72.222656 L 51.019531 87.136719 L 46.230469 87.136719 L 46.230469 49.050781 L 58.363281 49.050781 C 61.90625 49.050781 64.691406 50.105469 66.714844 52.21875 C 68.738281 54.339844 69.75 57.160156 69.75 60.679688 C 69.75 64.351562 68.785156 67.175781 66.859375 69.152344 C 64.933594 71.132812 62.214844 72.15625 58.710938 72.222656 Z M 51.019531 53.179688 L 51.019531 68.117188 L 58.363281 68.117188 C 60.492188 68.117188 62.125 67.480469 63.265625 66.207031 C 64.394531 64.933594 64.960938 63.109375 64.960938 60.738281 C 64.960938 58.453125 64.378906 56.621094 63.210938 55.246094 C 62.039062 53.867188 60.4375 53.179688 58.398438 53.179688 Z M 78.457031 49.050781 L 83.203125 75.125 L 83.691406 79.390625 L 84.453125 75.628906 L 90.546875 49.050781 L 94.554688 49.050781 L 100.46875 75.628906 L 101.230469 79.5 L 101.777344 75.101562 L 106.429688 49.050781 L 111.21875 49.050781 L 103.628906 87.136719 L 99.308594 87.136719 L 92.957031 59.375 L 92.566406 57.132812 L 92.175781 59.375 L 85.578125 87.136719 L 81.238281 87.136719 L 73.679688 49.050781 Z M 136.390625 87.136719 L 133.378906 77.191406 L 120.507812 77.191406 L 117.550781 87.136719 L 112.628906 87.136719 L 124.90625 49.050781 L 129.015625 49.050781 L 141.304688 87.136719 Z M 126.9375 55.746094 L 121.757812 73.058594 L 132.152344 73.058594 Z M 126.9375 55.746094 "/>
</g>
</svg>
