<?xml version="1.0" encoding="UTF-8"?>
<svg xmlns="http://www.w3.org/2000/svg" xmlns:xlink="http://www.w3.org/1999/xlink" width="512pt" height="512pt" viewBox="0 0 512 512" version="1.1">
<g id="surface5134087">
<path style=" stroke:none;fill-rule:nonzero;fill:rgb(0%,0%,0%);fill-opacity:1;" d="M 220.796875 24 C 201.195312 24 183.601562 34 173.203125 50.398438 C 169.601562 56 171.203125 63.597656 177.203125 66.796875 C 182.804688 70.398438 190.402344 68.796875 193.601562 62.796875 C 199.601562 53.195312 209.597656 47.601562 220.796875 47.601562 L 291.203125 47.601562 C 308.804688 47.601562 323.203125 62 323.203125 79.601562 L 323.203125 91.601562 L 76 91.601562 C 47.199219 91.601562 24 114.800781 24 143.601562 L 24 222.398438 C 24 226.796875 26.398438 230.398438 30 232.796875 C 91.601562 269.597656 159.996094 290.398438 228.796875 294.796875 L 228.796875 317.203125 C 228.796875 334.804688 243.195312 349.203125 260.796875 349.203125 C 278.398438 349.203125 292.796875 334.804688 292.796875 317.203125 L 292.796875 294 C 358.796875 288.398438 423.597656 267.996094 482.398438 232.796875 C 486 230.796875 488.398438 226.796875 488.398438 222.398438 L 488.398438 144 C 488 115.199219 464.800781 92 436 92 L 347.203125 92 L 347.203125 80 C 347.203125 49.199219 322.003906 24 291.203125 24 Z M 76 116 L 436 116 C 451.601562 116 464 128.398438 464 144 L 464 216 C 335.199219 290.398438 176.800781 290.398438 48 216 L 48 144 C 48 128.398438 60.398438 116 76 116 Z M 36 270.796875 C 29.199219 270.796875 24 275.996094 24 282.796875 L 24 456 C 24 484.800781 47.199219 508 76 508 L 436 508 C 464.800781 508 488 484.800781 488 456 L 488 282.796875 C 488 275.996094 482.800781 270.796875 476 270.796875 C 469.199219 270.796875 464 275.996094 464 282.796875 L 464 456 C 464 471.601562 451.601562 484 436 484 L 76 484 C 60.398438 484 48 471.601562 48 456 L 48 282.796875 C 48 275.996094 42.800781 270.796875 36 270.796875 Z M 36 270.796875 "/>
<path style=" stroke:none;fill-rule:nonzero;fill:rgb(27.843139%,27.450982%,27.450982%);fill-opacity:1;" d="M 156.5625 192.59375 L 136.050781 192.59375 L 136.050781 232.363281 L 123.28125 232.363281 L 123.28125 130.796875 L 155.640625 130.796875 C 165.085938 130.796875 172.507812 133.617188 177.90625 139.253906 C 183.304688 144.90625 186 152.429688 186 161.816406 C 186 171.597656 183.433594 179.128906 178.292969 184.410156 C 173.152344 189.6875 165.910156 192.417969 156.5625 192.59375 Z M 136.050781 141.8125 L 136.050781 181.640625 L 155.640625 181.640625 C 161.316406 181.640625 165.671875 179.945312 168.707031 176.550781 C 171.722656 173.15625 173.230469 168.296875 173.230469 161.964844 C 173.230469 155.871094 171.671875 150.992188 168.558594 147.320312 C 165.441406 143.648438 161.164062 141.8125 155.726562 141.8125 Z M 209.21875 130.796875 L 221.871094 200.335938 L 223.179688 211.707031 L 225.207031 201.675781 L 241.457031 130.796875 L 252.144531 130.796875 L 267.921875 201.675781 L 269.945312 212.003906 L 271.40625 200.273438 L 283.816406 130.796875 L 296.589844 130.796875 L 276.347656 232.363281 L 264.824219 232.363281 L 247.886719 158.332031 L 246.847656 152.351562 L 245.804688 158.332031 L 228.210938 232.363281 L 216.632812 232.363281 L 196.480469 130.796875 Z M 363.714844 232.363281 L 355.675781 205.84375 L 321.355469 205.84375 L 313.464844 232.363281 L 300.339844 232.363281 L 333.082031 130.796875 L 344.039062 130.796875 L 376.8125 232.363281 Z M 338.5 148.660156 L 324.6875 194.828125 L 352.402344 194.828125 Z M 338.5 148.660156 "/>
</g>
</svg>
